<svg xmlns="http://www.w3.org/2000/svg" version="1.1" width="3300" height="2000"><g id="Notes"><style>
    text {
      font-family: monospace;
      text-anchor: middle;
    }
    text.emphasis {
      font-weight:bold;
    }
    text.lanchor {
      text-anchor: start;
    }
  </style><rect height="2200" id="artboard" fill="white" width="3300" x="0" y="0"/><line id="" style="fill:none;stroke:black;stroke-width:0.5;" x1="263" x2="3036" y1="292" y2="292"/><text class="lanchor emphasis" transform="matrix(1 0 0 1 263 322)">Weight/Scale Variations</text><text transform="matrix(1 0 0 1 559.711 322)">Ultralight</text><text transform="matrix(1 0 0 1 856.422 322)">Thin</text><text transform="matrix(1 0 0 1 1153.13 322)">Light</text><text transform="matrix(1 0 0 1 1449.84 322)">Regular</text><text transform="matrix(1 0 0 1 1746.56 322)">Medium</text><text transform="matrix(1 0 0 1 2043.27 322)">Semibold</text><text transform="matrix(1 0 0 1 2339.98 322)">Bold</text><text transform="matrix(1 0 0 1 2636.69 322)">Heavy</text><text transform="matrix(1 0 0 1 2933.4 322)">Black</text><text id="template-version" style="text-anchor: end;" transform="matrix(1 0 0 1 3036 1933)">Template v.1.0</text><text class="lanchor" transform="matrix(1 0 0 1 263 726)">Small</text><text class="lanchor" transform="matrix(1 0 0 1 263 1156)">Medium</text><text class="lanchor" transform="matrix(1 0 0 1 263 1586)">Large</text></g><g id="Guides"><g id="H-reference" style="fill:#27AAE1;stroke:none;" transform="matrix(1 0 0 1 339 696)"><path d="M 54.9316 0 L 57.666 0 L 30.5664 -70.459 L 28.0762 -70.459 L 0.976562 0 L 3.66211 0 L 12.9395 -24.4629 L 45.7031 -24.4629 Z M 29.1992 -67.0898 L 29.4434 -67.0898 L 44.8242 -26.709 L 13.8184 -26.709 Z"/></g><line id="Baseline-S" style="fill:none;stroke:#27AAE1;opacity:1;stroke-width:0.577;" x1="263" x2="3036" y1="696" y2="696"/><line id="Capline-S" style="fill:none;stroke:#27AAE1;opacity:1;stroke-width:0.577;" x1="263" x2="3036" y1="625.541" y2="625.541"/><g id="H-reference" style="fill:#27AAE1;stroke:none;" transform="matrix(1 0 0 1 339 1126)"><path d="M 54.9316 0 L 57.666 0 L 30.5664 -70.459 L 28.0762 -70.459 L 0.976562 0 L 3.66211 0 L 12.9395 -24.4629 L 45.7031 -24.4629 Z M 29.1992 -67.0898 L 29.4434 -67.0898 L 44.8242 -26.709 L 13.8184 -26.709 Z"/></g><line id="Baseline-M" style="fill:none;stroke:#27AAE1;opacity:1;stroke-width:0.577;" x1="263" x2="3036" y1="1126" y2="1126"/><line id="Capline-M" style="fill:none;stroke:#27AAE1;opacity:1;stroke-width:0.577;" x1="263" x2="3036" y1="1055.54" y2="1055.54"/><g id="H-reference" style="fill:#27AAE1;stroke:none;" transform="matrix(1 0 0 1 339 1556)"><path d="M 54.9316 0 L 57.666 0 L 30.5664 -70.459 L 28.0762 -70.459 L 0.976562 0 L 3.66211 0 L 12.9395 -24.4629 L 45.7031 -24.4629 Z M 29.1992 -67.0898 L 29.4434 -67.0898 L 44.8242 -26.709 L 13.8184 -26.709 Z"/></g><line id="Baseline-L" style="fill:none;stroke:#27AAE1;opacity:1;stroke-width:0.577;" x1="263" x2="3036" y1="1556" y2="1556"/><line id="Capline-L" style="fill:none;stroke:#27AAE1;opacity:1;stroke-width:0.577;" x1="263" x2="3036" y1="1485.54" y2="1485.54"/><rect height="119.336" id="left-margin" style="fill:darkred;stroke:none;opacity:0.4;" width="12.4512" x="1394.06" y="1030.79"/><rect height="119.336" id="right-margin" style="fill:darkgreen;stroke:none;opacity:0.4;" width="12.4512" x="1502.5112" y="1030.79"/><rect x="1406.5112" y="1045" width="96" height="96" fill="none" stroke="blue" stroke-dasharray="5"/><rect x="1394.06" y="1030.79" width="120.9024" height="119.336" fill="none" stroke="blue"/></g><g id="Symbols"><g id="Bold-L" transform="matrix(1 0 0 1 2266 1556)"><path d="M77.281 0.084 Q89.494 0.084 97.637 -8.021 Q105.78 -16.127 105.78 -28.258 Q105.78 -40.39 97.675 -48.533 Q89.57 -56.676 77.438 -56.676 Q65.306 -56.676 57.163 -48.585 Q49.02 -40.493 49.02 -28.415 Q49.02 -16.202 57.112 -8.059 Q65.204 0.084 77.281 0.084 Z M77.319 -12.816 Q70.627 -12.816 66.274 -17.251 Q61.92 -21.685 61.92 -28.377 Q61.92 -35.069 66.274 -39.503 Q70.627 -43.937 77.319 -43.937 Q84.011 -43.937 88.526 -39.503 Q93.041 -35.069 93.041 -28.377 Q93.041 -21.685 88.526 -17.251 Q84.011 -12.816 77.319 -12.816 Z M24.026 26.851 Q17.729 26.851 13.299 22.421 Q8.869 17.991 8.869 11.694 V-68.125 Q8.869 -74.327 13.299 -78.885 Q17.729 -83.444 24.026 -83.444 H44.183 L57.566 -97.472 H97.234 L110.779 -83.444 H130.774 Q136.976 -83.444 141.534 -78.885 Q146.093 -74.327 146.093 -68.125 V11.694 Q146.093 17.991 141.534 22.421 Q136.976 26.851 130.774 26.851 H24.026 Z M24.026 11.694 H130.774 Q130.774 11.694 130.774 11.694 Q130.774 11.694 130.774 11.694 V-68.125 Q130.774 -68.125 130.774 -68.125 Q130.774 -68.125 130.774 -68.125 H104.329 L91.267 -82.154 H63.855 L50.149 -68.125 H24.026 Q24.026 -68.125 24.026 -68.125 Q24.026 -68.125 24.026 -68.125 V11.694 Q24.026 11.694 24.026 11.694 Q24.026 11.694 24.026 11.694 Z"/></g><g id="Semibold-L" transform="matrix(1 0 0 1 1970.27 1556)"><path d="M77.298 -0.337 Q89.283 -0.337 97.321 -8.353 Q105.359 -16.37 105.359 -28.31 Q105.359 -40.25 97.343 -48.253 Q89.326 -56.256 77.386 -56.256 Q65.447 -56.256 57.444 -48.282 Q49.441 -40.308 49.441 -28.398 Q49.441 -16.413 57.415 -8.375 Q65.388 -0.337 77.298 -0.337 Z M77.319 -11.835 Q70.207 -11.835 65.573 -16.55 Q60.938 -21.264 60.938 -28.377 Q60.938 -35.489 65.573 -40.169 Q70.207 -44.849 77.319 -44.849 Q84.432 -44.849 89.192 -40.169 Q93.953 -35.489 93.953 -28.377 Q93.953 -21.264 89.192 -16.55 Q84.432 -11.835 77.319 -11.835 Z M23.395 25.099 Q18.154 25.099 14.388 21.332 Q10.621 17.566 10.621 12.325 V-68.756 Q10.621 -73.874 14.388 -77.748 Q18.154 -81.621 23.395 -81.621 H45.094 L57.777 -95.65 H97.023 L109.797 -81.621 H131.405 Q136.523 -81.621 140.396 -77.748 Q144.27 -73.874 144.27 -68.756 V12.325 Q144.27 17.566 140.396 21.332 Q136.523 25.099 131.405 25.099 H23.395 Z M23.395 12.325 H131.405 Q131.405 12.325 131.405 12.325 Q131.405 12.325 131.405 12.325 V-68.756 Q131.405 -68.756 131.405 -68.756 Q131.405 -68.756 131.405 -68.756 H104.188 L91.688 -82.785 H63.294 L50.429 -68.756 H23.395 Q23.395 -68.756 23.395 -68.756 Q23.395 -68.756 23.395 -68.756 V12.325 Q23.395 12.325 23.395 12.325 Q23.395 12.325 23.395 12.325 Z"/></g><g id="Medium-L" transform="matrix(1 0 0 1 1674.31 1556)"><path d="M77.31 -0.652 Q89.126 -0.652 97.085 -8.602 Q105.044 -16.552 105.044 -28.348 Q105.044 -40.145 97.094 -48.042 Q89.144 -55.94 77.348 -55.94 Q65.552 -55.94 57.654 -48.055 Q49.756 -40.169 49.756 -28.386 Q49.756 -16.571 57.642 -8.611 Q65.527 -0.652 77.31 -0.652 Z M77.319 -11.099 Q69.891 -11.099 65.047 -16.024 Q60.202 -20.949 60.202 -28.377 Q60.202 -35.805 65.047 -40.669 Q69.891 -45.532 77.319 -45.532 Q84.747 -45.532 89.692 -40.669 Q94.636 -35.805 94.636 -28.377 Q94.636 -20.949 89.692 -16.024 Q84.747 -11.099 77.319 -11.099 Z M22.922 23.784 Q18.472 23.784 15.204 20.516 Q11.936 17.248 11.936 12.798 V-69.229 Q11.936 -73.534 15.204 -76.894 Q18.472 -80.254 22.922 -80.254 H45.777 L57.934 -94.283 H96.866 L109.061 -80.254 H131.878 Q136.183 -80.254 139.543 -76.894 Q142.903 -73.534 142.903 -69.229 V12.798 Q142.903 17.248 139.543 20.516 Q136.183 23.784 131.878 23.784 H22.922 Z M22.922 12.798 H131.878 Q131.878 12.798 131.878 12.798 Q131.878 12.798 131.878 12.798 V-69.229 Q131.878 -69.229 131.878 -69.229 Q131.878 -69.229 131.878 -69.229 H104.083 L92.004 -83.258 H62.873 L50.639 -69.229 H22.922 Q22.922 -69.229 22.922 -69.229 Q22.922 -69.229 22.922 -69.229 V12.798 Q22.922 12.798 22.922 12.798 Q22.922 12.798 22.922 12.798 Z"/></g><g id="Regular-L" transform="matrix(1 0 0 1 1378.56 1556)"><path d="M77.319 -0.884 Q89.01 -0.884 96.911 -8.785 Q104.812 -16.686 104.812 -28.377 Q104.812 -40.067 96.911 -47.888 Q89.01 -55.709 77.319 -55.709 Q65.629 -55.709 57.808 -47.888 Q49.988 -40.067 49.988 -28.377 Q49.988 -16.686 57.808 -8.785 Q65.629 -0.884 77.319 -0.884 Z M77.319 -10.559 Q69.66 -10.559 64.661 -15.638 Q59.663 -20.717 59.663 -28.377 Q59.663 -36.036 64.661 -41.035 Q69.66 -46.034 77.319 -46.034 Q84.979 -46.034 90.058 -41.035 Q95.138 -36.036 95.138 -28.377 Q95.138 -20.717 90.058 -15.638 Q84.979 -10.559 77.319 -10.559 Z M22.575 22.82 Q18.705 22.82 15.803 19.918 Q12.9 17.015 12.9 13.145 V-69.576 Q12.9 -73.285 15.803 -76.268 Q18.705 -79.251 22.575 -79.251 H46.279 L58.05 -93.28 H96.75 L108.521 -79.251 H132.225 Q135.934 -79.251 138.917 -76.268 Q141.9 -73.285 141.9 -69.576 V13.145 Q141.9 17.015 138.917 19.918 Q135.934 22.82 132.225 22.82 H22.575 Z M22.575 13.145 H132.225 Q132.225 13.145 132.225 13.145 Q132.225 13.145 132.225 13.145 V-69.576 Q132.225 -69.576 132.225 -69.576 Q132.225 -69.576 132.225 -69.576 H104.006 L92.235 -83.605 H62.565 L50.794 -69.576 H22.575 Q22.575 -69.576 22.575 -69.576 Q22.575 -69.576 22.575 -69.576 V13.145 Q22.575 13.145 22.575 13.145 Q22.575 13.145 22.575 13.145 Z"/></g><g id="Light-L" transform="matrix(1 0 0 1 1082.77 1556)"><path d="M77.35 -3.055 Q88.142 -3.055 95.454 -10.367 Q102.766 -17.679 102.766 -28.47 Q102.766 -39.261 95.454 -46.524 Q88.142 -53.786 77.35 -53.786 Q66.559 -53.786 59.297 -46.524 Q52.034 -39.261 52.034 -28.47 Q52.034 -17.679 59.297 -10.367 Q66.559 -3.055 77.35 -3.055 Z M77.35 -10.373 Q69.598 -10.373 64.475 -15.545 Q59.352 -20.717 59.352 -28.47 Q59.352 -36.222 64.475 -41.345 Q69.598 -46.468 77.35 -46.468 Q85.103 -46.468 90.275 -41.345 Q95.448 -36.222 95.448 -28.47 Q95.448 -20.717 90.275 -15.545 Q85.103 -10.373 77.35 -10.373 Z M25.428 19.595 Q21.634 19.595 18.88 16.84 Q16.125 14.086 16.125 10.292 V-67.033 Q16.125 -70.742 18.88 -73.539 Q21.634 -76.336 25.428 -76.336 H47.581 L59.414 -90.055 H95.386 L107.219 -76.336 H129.372 Q133.081 -76.336 135.878 -73.539 Q138.675 -70.742 138.675 -67.033 V10.292 Q138.675 14.086 135.878 16.84 Q133.081 19.595 129.372 19.595 H25.428 Z M25.428 12.277 H129.372 Q130.24 12.277 130.798 11.718 Q131.357 11.16 131.357 10.292 V-67.033 Q131.357 -67.84 130.798 -68.429 Q130.24 -69.018 129.372 -69.018 H103.82 L91.987 -82.737 H62.813 L50.98 -69.018 H25.428 Q24.56 -69.018 24.002 -68.429 Q23.443 -67.84 23.443 -67.033 V10.292 Q23.443 11.16 24.002 11.718 Q24.56 12.277 25.428 12.277 Z"/></g><g id="Thin-L" transform="matrix(1 0 0 1 787.282 1556)"><path d="M77.381 -5.225 Q87.273 -5.225 93.996 -11.948 Q100.719 -18.671 100.719 -28.563 Q100.719 -38.455 93.996 -45.159 Q87.273 -51.864 77.381 -51.864 Q67.489 -51.864 60.785 -45.159 Q54.081 -38.455 54.081 -28.563 Q54.081 -18.671 60.785 -11.948 Q67.489 -5.225 77.381 -5.225 Z M77.381 -10.187 Q69.536 -10.187 64.289 -15.452 Q59.042 -20.717 59.042 -28.563 Q59.042 -36.408 64.289 -41.655 Q69.536 -46.902 77.381 -46.902 Q85.227 -46.902 90.492 -41.655 Q95.758 -36.408 95.758 -28.563 Q95.758 -20.717 90.492 -15.452 Q85.227 -10.187 77.381 -10.187 Z M28.281 16.37 Q24.563 16.37 21.956 13.764 Q19.35 11.157 19.35 7.439 V-64.491 Q19.35 -68.199 21.956 -70.81 Q24.563 -73.421 28.281 -73.421 H48.884 L60.779 -86.83 H94.021 L105.916 -73.421 H126.519 Q130.228 -73.421 132.839 -70.81 Q135.45 -68.199 135.45 -64.491 V7.439 Q135.45 11.157 132.839 13.764 Q130.228 16.37 126.519 16.37 H28.281 Z M28.281 11.408 H126.519 Q128.256 11.408 129.372 10.292 Q130.488 9.176 130.488 7.439 V-64.491 Q130.488 -66.103 129.372 -67.282 Q128.256 -68.46 126.519 -68.46 H103.634 L91.739 -81.868 H63.061 L51.166 -68.46 H28.281 Q26.544 -68.46 25.428 -67.282 Q24.312 -66.103 24.312 -64.491 V7.439 Q24.312 9.176 25.428 10.292 Q26.544 11.408 28.281 11.408 Z"/></g><g id="Ultralight-L" transform="matrix(1 0 0 1 491.205 1556)"><path d="M77.4 -6.527 Q86.752 -6.527 93.122 -12.897 Q99.491 -19.266 99.491 -28.619 Q99.491 -37.971 93.122 -44.341 Q86.752 -50.71 77.4 -50.71 Q68.047 -50.71 61.678 -44.341 Q55.309 -37.971 55.309 -28.619 Q55.309 -19.266 61.678 -12.897 Q68.047 -6.527 77.4 -6.527 Z M77.4 -10.075 Q69.499 -10.075 64.177 -15.396 Q58.856 -20.717 58.856 -28.619 Q58.856 -36.52 64.177 -41.841 Q69.499 -47.162 77.4 -47.162 Q85.301 -47.162 90.623 -41.841 Q95.944 -36.52 95.944 -28.619 Q95.944 -20.717 90.623 -15.396 Q85.301 -10.075 77.4 -10.075 Z M29.992 14.435 Q26.32 14.435 23.803 11.917 Q21.285 9.4 21.285 5.728 V-62.965 Q21.285 -66.674 23.803 -69.173 Q26.32 -71.672 29.992 -71.672 H49.665 L61.598 -84.895 H93.203 L105.135 -71.672 H124.808 Q128.516 -71.672 131.016 -69.173 Q133.515 -66.674 133.515 -62.965 V5.728 Q133.515 9.4 131.016 11.917 Q128.516 14.435 124.808 14.435 H29.992 Z M29.992 10.888 H124.808 Q127.065 10.888 128.516 9.436 Q129.968 7.985 129.968 5.728 V-62.965 Q129.968 -65.061 128.516 -66.593 Q127.065 -68.125 124.808 -68.125 H103.523 L91.59 -81.347 H63.21 L51.278 -68.125 H29.992 Q27.735 -68.125 26.284 -66.593 Q24.832 -65.061 24.832 -62.965 V5.728 Q24.832 7.985 26.284 9.436 Q27.735 10.888 29.992 10.888 Z"/></g><g id="Bold-M" transform="matrix(1 0 0 1 2281.8 1126)"><path d="M59.971 -6.73 Q69.75 -6.73 76.625 -13.576 Q83.5 -20.421 83.5 -30.201 Q83.5 -39.98 76.654 -46.855 Q69.809 -53.73 60.029 -53.73 Q50.25 -53.73 43.375 -46.884 Q36.5 -40.039 36.5 -30.259 Q36.5 -20.48 43.346 -13.605 Q50.191 -6.73 59.971 -6.73 Z M60 -19.98 Q55.625 -19.98 52.688 -22.917 Q49.75 -25.855 49.75 -30.23 Q49.75 -34.605 52.688 -37.542 Q55.625 -40.48 60 -40.48 Q64.375 -40.48 67.312 -37.542 Q70.25 -34.605 70.25 -30.23 Q70.25 -25.855 67.312 -22.917 Q64.375 -19.98 60 -19.98 Z M21.5 14.02 Q14.875 14.02 10.312 9.458 Q5.75 4.895 5.75 -1.73 V-58.73 Q5.75 -65.355 10.312 -69.917 Q14.875 -74.48 21.5 -74.48 H33.5 L44.5 -84.48 H75.5 L86.5 -74.48 H98.5 Q105.125 -74.48 109.688 -69.917 Q114.25 -65.355 114.25 -58.73 V-1.73 Q114.25 4.895 109.688 9.458 Q105.125 14.02 98.5 14.02 H21.5 Z M21.5 -1.73 H98.5 Q98.5 -1.73 98.5 -1.73 Q98.5 -1.73 98.5 -1.73 V-58.73 Q98.5 -58.73 98.5 -58.73 Q98.5 -58.73 98.5 -58.73 H80.125 L69.625 -68.73 H50.75 L39.5 -58.73 H21.5 Q21.5 -58.73 21.5 -58.73 Q21.5 -58.73 21.5 -58.73 V-1.73 Q21.5 -1.73 21.5 -1.73 Q21.5 -1.73 21.5 -1.73 Z"/></g><g id="Semibold-M" transform="matrix(1 0 0 1 1985.97 1126)"><path d="M59.983 -7.165 Q69.587 -7.165 76.326 -13.887 Q83.065 -20.61 83.065 -30.213 Q83.065 -39.817 76.343 -46.556 Q69.62 -53.295 60.017 -53.295 Q50.413 -53.295 43.674 -46.573 Q36.935 -39.85 36.935 -30.247 Q36.935 -20.643 43.657 -13.904 Q50.38 -7.165 59.983 -7.165 Z M60 -19.002 Q55.245 -19.002 52.008 -22.238 Q48.772 -25.475 48.772 -30.23 Q48.772 -34.985 52.008 -38.222 Q55.245 -41.458 60 -41.458 Q64.755 -41.458 67.992 -38.222 Q71.228 -34.985 71.228 -30.23 Q71.228 -25.475 67.992 -22.238 Q64.755 -19.002 60 -19.002 Z M20.848 12.172 Q15.31 12.172 11.454 8.316 Q7.598 4.46 7.598 -1.078 V-59.382 Q7.598 -64.92 11.454 -68.776 Q15.31 -72.632 20.848 -72.632 H34.478 L44.717 -82.632 H75.283 L85.522 -72.632 H99.152 Q104.69 -72.632 108.546 -68.776 Q112.402 -64.92 112.402 -59.382 V-1.078 Q112.402 4.46 108.546 8.316 Q104.69 12.172 99.152 12.172 H20.848 Z M20.848 -1.078 H99.152 Q99.152 -1.078 99.152 -1.078 Q99.152 -1.078 99.152 -1.078 V-59.382 Q99.152 -59.382 99.152 -59.382 Q99.152 -59.382 99.152 -59.382 H79.962 L70.06 -69.382 H50.152 L39.826 -59.382 H20.848 Q20.848 -59.382 20.848 -59.382 Q20.848 -59.382 20.848 -59.382 V-1.078 Q20.848 -1.078 20.848 -1.078 Q20.848 -1.078 20.848 -1.078 Z"/></g><g id="Medium-M" transform="matrix(1 0 0 1 1689.91 1126)"><path d="M59.993 -7.491 Q69.465 -7.491 76.102 -14.121 Q82.739 -20.751 82.739 -30.223 Q82.739 -39.695 76.109 -46.332 Q69.479 -52.969 60.007 -52.969 Q50.535 -52.969 43.898 -46.339 Q37.261 -39.709 37.261 -30.237 Q37.261 -20.765 43.891 -14.128 Q50.521 -7.491 59.993 -7.491 Z M60 -18.268 Q54.959 -18.268 51.499 -21.729 Q48.038 -25.189 48.038 -30.23 Q48.038 -35.271 51.499 -38.731 Q54.959 -42.192 60 -42.192 Q65.041 -42.192 68.501 -38.731 Q71.962 -35.271 71.962 -30.23 Q71.962 -25.189 68.501 -21.729 Q65.041 -18.268 60 -18.268 Z M20.359 10.786 Q15.636 10.786 12.31 7.46 Q8.984 4.134 8.984 -0.589 V-59.871 Q8.984 -64.594 12.31 -67.92 Q15.636 -71.246 20.359 -71.246 H35.212 L44.88 -81.246 H75.12 L84.788 -71.246 H99.641 Q104.364 -71.246 107.69 -67.92 Q111.016 -64.594 111.016 -59.871 V-0.589 Q111.016 4.134 107.69 7.46 Q104.364 10.786 99.641 10.786 H20.359 Z M20.359 -0.589 H99.641 Q99.641 -0.589 99.641 -0.589 Q99.641 -0.589 99.641 -0.589 V-59.871 Q99.641 -59.871 99.641 -59.871 Q99.641 -59.871 99.641 -59.871 H79.84 L70.386 -69.871 H49.704 L40.071 -59.871 H20.359 Q20.359 -59.871 20.359 -59.871 Q20.359 -59.871 20.359 -59.871 V-0.589 Q20.359 -0.589 20.359 -0.589 Q20.359 -0.589 20.359 -0.589 Z"/></g><g id="Regular-M" transform="matrix(1 0 0 1 1394.06 1126)"><path d="M60 -7.73 Q69.375 -7.73 75.938 -14.292 Q82.5 -20.855 82.5 -30.23 Q82.5 -39.605 75.938 -46.167 Q69.375 -52.73 60 -52.73 Q50.625 -52.73 44.062 -46.167 Q37.5 -39.605 37.5 -30.23 Q37.5 -20.855 44.062 -14.292 Q50.625 -7.73 60 -7.73 Z M60 -17.73 Q54.75 -17.73 51.125 -21.355 Q47.5 -24.98 47.5 -30.23 Q47.5 -35.48 51.125 -39.105 Q54.75 -42.73 60 -42.73 Q65.25 -42.73 68.875 -39.105 Q72.5 -35.48 72.5 -30.23 Q72.5 -24.98 68.875 -21.355 Q65.25 -17.73 60 -17.73 Z M20 9.77 Q15.875 9.77 12.938 6.833 Q10 3.895 10 -0.23 V-60.23 Q10 -64.355 12.938 -67.292 Q15.875 -70.23 20 -70.23 H35.75 L45 -80.23 H75 L84.25 -70.23 H100 Q104.125 -70.23 107.062 -67.292 Q110 -64.355 110 -60.23 V-0.23 Q110 3.895 107.062 6.833 Q104.125 9.77 100 9.77 H20 Z M20 -0.23 H100 Q100 -0.23 100 -0.23 Q100 -0.23 100 -0.23 V-60.23 Q100 -60.23 100 -60.23 Q100 -60.23 100 -60.23 H79.75 L70.625 -70.23 H49.375 L40.25 -60.23 H20 Q20 -60.23 20 -60.23 Q20 -60.23 20 -60.23 V-0.23 Q20 -0.23 20 -0.23 Q20 -0.23 20 -0.23 Z"/></g><g id="Light-M" transform="matrix(1 0 0 1 1098.18 1126)"><path d="M60 -9.653 Q68.606 -9.653 74.591 -15.639 Q80.577 -21.624 80.577 -30.23 Q80.577 -38.836 74.591 -44.821 Q68.606 -50.807 60 -50.807 Q51.394 -50.807 45.409 -44.821 Q39.423 -38.836 39.423 -30.23 Q39.423 -21.624 45.409 -15.639 Q51.394 -9.653 60 -9.653 Z M60 -17.153 Q54.462 -17.153 50.692 -20.922 Q46.923 -24.691 46.923 -30.23 Q46.923 -35.768 50.692 -39.538 Q54.462 -43.307 60 -43.307 Q65.538 -43.307 69.308 -39.538 Q73.077 -35.768 73.077 -30.23 Q73.077 -24.691 69.308 -20.922 Q65.538 -17.153 60 -17.153 Z M21.539 7.27 Q17.75 7.27 15.125 4.645 Q12.5 2.02 12.5 -1.769 V-58.691 Q12.5 -62.48 15.125 -65.105 Q17.75 -67.73 21.539 -67.73 H36.808 L46.058 -77.73 H73.942 L83.192 -67.73 H98.461 Q102.25 -67.73 104.875 -65.105 Q107.5 -62.48 107.5 -58.691 V-1.769 Q107.5 2.02 104.875 4.645 Q102.25 7.27 98.461 7.27 H21.539 Z M21.539 -0.23 H98.461 Q99.135 -0.23 99.567 -0.663 Q100 -1.095 100 -1.769 V-58.691 Q100 -59.364 99.567 -59.797 Q99.135 -60.23 98.461 -60.23 H79.846 L70.673 -70.23 H49.327 L40.154 -60.23 H21.539 Q20.866 -60.23 20.433 -59.797 Q20 -59.364 20 -58.691 V-1.769 Q20 -1.095 20.433 -0.663 Q20.866 -0.23 21.539 -0.23 Z"/></g><g id="Thin-M" transform="matrix(1 0 0 1 802.565 1126)"><path d="M60 -11.576 Q67.837 -11.576 73.245 -16.985 Q78.654 -22.393 78.654 -30.23 Q78.654 -38.066 73.245 -43.475 Q67.837 -48.884 60 -48.884 Q52.163 -48.884 46.755 -43.475 Q41.346 -38.066 41.346 -30.23 Q41.346 -22.393 46.755 -16.985 Q52.163 -11.576 60 -11.576 Z M60 -16.576 Q54.173 -16.576 50.26 -20.49 Q46.346 -24.403 46.346 -30.23 Q46.346 -36.057 50.26 -39.97 Q54.173 -43.884 60 -43.884 Q65.827 -43.884 69.74 -39.97 Q73.654 -36.057 73.654 -30.23 Q73.654 -24.403 69.74 -20.49 Q65.827 -16.576 60 -16.576 Z M23.077 4.77 Q19.625 4.77 17.312 2.458 Q15 0.145 15 -3.307 V-57.153 Q15 -60.605 17.312 -62.917 Q19.625 -65.23 23.077 -65.23 H37.865 L47.115 -75.23 H72.885 L82.135 -65.23 H96.923 Q100.375 -65.23 102.688 -62.917 Q105 -60.605 105 -57.153 V-3.307 Q105 0.145 102.688 2.458 Q100.375 4.77 96.923 4.77 H23.077 Z M23.077 -0.23 H96.923 Q98.269 -0.23 99.135 -1.095 Q100 -1.961 100 -3.307 V-57.153 Q100 -58.499 99.135 -59.365 Q98.269 -60.23 96.923 -60.23 H79.942 L70.721 -70.23 H49.279 L40.058 -60.23 H23.077 Q21.731 -60.23 20.865 -59.365 Q20 -58.499 20 -57.153 V-3.307 Q20 -1.961 20.865 -1.095 Q21.731 -0.23 23.077 -0.23 Z"/></g><g id="Ultralight-M" transform="matrix(1 0 0 1 506.415 1126)"><path d="M60 -12.73 Q67.375 -12.73 72.438 -17.792 Q77.5 -22.855 77.5 -30.23 Q77.5 -37.605 72.438 -42.667 Q67.375 -47.73 60 -47.73 Q52.625 -47.73 47.562 -42.667 Q42.5 -37.605 42.5 -30.23 Q42.5 -22.855 47.562 -17.792 Q52.625 -12.73 60 -12.73 Z M60 -16.23 Q54 -16.23 50 -20.23 Q46 -24.23 46 -30.23 Q46 -36.23 50 -40.23 Q54 -44.23 60 -44.23 Q66 -44.23 70 -40.23 Q74 -36.23 74 -30.23 Q74 -24.23 70 -20.23 Q66 -16.23 60 -16.23 Z M24 3.27 Q20.75 3.27 18.625 1.145 Q16.5 -0.98 16.5 -4.23 V-56.23 Q16.5 -59.48 18.625 -61.605 Q20.75 -63.73 24 -63.73 H38.5 L47.75 -73.73 H72.25 L81.5 -63.73 H96 Q99.25 -63.73 101.375 -61.605 Q103.5 -59.48 103.5 -56.23 V-4.23 Q103.5 -0.98 101.375 1.145 Q99.25 3.27 96 3.27 H24 Z M24 -0.23 H96 Q97.75 -0.23 98.875 -1.355 Q100 -2.48 100 -4.23 V-56.23 Q100 -57.98 98.875 -59.105 Q97.75 -60.23 96 -60.23 H80 L70.75 -70.23 H49.25 L40 -60.23 H24 Q22.25 -60.23 21.125 -59.105 Q20 -57.98 20 -56.23 V-4.23 Q20 -2.48 21.125 -1.355 Q22.25 -0.23 24 -0.23 Z"/></g><g id="Bold-S" transform="matrix(1 0 0 1 2294.23 696)"><path d="M47.317 -13.138 Q54.737 -13.138 59.717 -18.194 Q64.698 -23.25 64.698 -30.473 Q64.698 -37.597 59.741 -42.725 Q54.783 -47.854 47.363 -47.854 Q39.943 -47.854 34.963 -42.749 Q29.982 -37.643 29.982 -30.47 Q29.982 -23.296 34.939 -18.217 Q39.897 -13.138 47.317 -13.138 Z M47.34 -22.803 Q43.888 -22.803 41.768 -25.035 Q39.647 -27.267 39.647 -30.595 Q39.647 -33.839 41.768 -36.014 Q43.888 -38.189 47.34 -38.189 Q50.792 -38.189 52.912 -36.014 Q55.033 -33.839 55.033 -30.595 Q55.033 -27.267 52.912 -25.035 Q50.792 -22.803 47.34 -22.803 Z M17.753 1.261 Q12.92 1.261 9.517 -2.141 Q6.115 -5.544 6.115 -10.376 V-50.615 Q6.115 -55.448 9.517 -58.851 Q12.92 -62.253 17.753 -62.253 H26.629 L35.111 -71.721 H59.57 L68.051 -62.253 H76.928 Q81.829 -62.253 85.197 -58.851 Q88.565 -55.448 88.565 -50.615 V-10.376 Q88.565 -5.544 85.197 -2.141 Q81.829 1.261 76.928 1.261 H17.753 Z M17.753 -10.376 H76.928 Q76.928 -10.376 76.928 -10.376 Q76.928 -10.376 76.928 -10.376 V-50.615 Q76.928 -50.615 76.928 -50.615 Q76.928 -50.615 76.928 -50.615 H63.021 L54.826 -60.083 H40.14 L31.363 -50.615 H17.753 Q17.753 -50.615 17.753 -50.615 Q17.753 -50.615 17.753 -50.615 V-10.376 Q17.753 -10.376 17.753 -10.376 Q17.753 -10.376 17.753 -10.376 Z"/></g><g id="Semibold-S" transform="matrix(1 0 0 1 1998.1 696)"><path d="M47.327 -13.481 Q54.608 -13.481 59.482 -18.44 Q64.355 -23.399 64.355 -30.483 Q64.355 -37.468 59.495 -42.49 Q54.635 -47.511 47.353 -47.511 Q40.072 -47.511 35.198 -42.503 Q30.325 -37.495 30.325 -30.46 Q30.325 -23.425 35.185 -18.453 Q40.045 -13.481 47.327 -13.481 Z M47.34 -22.031 Q43.588 -22.031 41.232 -24.499 Q38.875 -26.967 38.875 -30.595 Q38.875 -34.14 41.232 -36.55 Q43.588 -38.961 47.34 -38.961 Q51.092 -38.961 53.448 -36.55 Q55.805 -34.14 55.805 -30.595 Q55.805 -26.967 53.448 -24.499 Q51.092 -22.031 47.34 -22.031 Z M17.238 -0.197 Q13.263 -0.197 10.418 -3.042 Q7.573 -5.887 7.573 -9.862 V-51.13 Q7.573 -55.105 10.418 -57.95 Q13.263 -60.795 17.238 -60.795 H27.401 L35.282 -70.263 H59.398 L67.279 -60.795 H77.442 Q81.486 -60.795 84.297 -57.95 Q87.107 -55.105 87.107 -51.13 V-9.862 Q87.107 -5.887 84.297 -3.042 Q81.486 -0.197 77.442 -0.197 H17.238 Z M17.238 -9.862 H77.442 Q77.442 -9.862 77.442 -9.862 Q77.442 -9.862 77.442 -9.862 V-51.13 Q77.442 -51.13 77.442 -51.13 Q77.442 -51.13 77.442 -51.13 H62.893 L55.169 -60.598 H39.669 L31.62 -51.13 H17.238 Q17.238 -51.13 17.238 -51.13 Q17.238 -51.13 17.238 -51.13 V-9.862 Q17.238 -9.862 17.238 -9.862 Q17.238 -9.862 17.238 -9.862 Z"/></g><g id="Medium-S" transform="matrix(1 0 0 1 1701.85 696)"><path d="M47.334 -13.738 Q54.512 -13.738 59.305 -18.624 Q64.098 -23.51 64.098 -30.49 Q64.098 -37.372 59.31 -42.313 Q54.523 -47.254 47.346 -47.254 Q40.168 -47.254 35.375 -42.318 Q30.582 -37.383 30.582 -30.452 Q30.582 -23.522 35.37 -18.63 Q40.157 -13.738 47.334 -13.738 Z M47.34 -21.452 Q43.363 -21.452 40.83 -24.097 Q38.296 -26.742 38.296 -30.595 Q38.296 -34.365 40.83 -36.952 Q43.363 -39.54 47.34 -39.54 Q51.317 -39.54 53.85 -36.952 Q56.384 -34.365 56.384 -30.595 Q56.384 -26.742 53.85 -24.097 Q51.317 -21.452 47.34 -21.452 Z M16.852 -1.29 Q13.52 -1.29 11.093 -3.717 Q8.666 -6.144 8.666 -9.476 V-51.516 Q8.666 -54.848 11.093 -57.275 Q13.52 -59.702 16.852 -59.702 H27.98 L35.411 -69.17 H59.269 L66.7 -59.702 H77.828 Q81.229 -59.702 83.621 -57.275 Q86.014 -54.848 86.014 -51.516 V-9.476 Q86.014 -6.144 83.621 -3.717 Q81.229 -1.29 77.828 -1.29 H16.852 Z M16.852 -9.476 H77.828 Q77.828 -9.476 77.828 -9.476 Q77.828 -9.476 77.828 -9.476 V-51.516 Q77.828 -51.516 77.828 -51.516 Q77.828 -51.516 77.828 -51.516 H62.796 L55.426 -60.984 H39.315 L31.813 -51.516 H16.852 Q16.852 -51.516 16.852 -51.516 Q16.852 -51.516 16.852 -51.516 V-9.476 Q16.852 -9.476 16.852 -9.476 Q16.852 -9.476 16.852 -9.476 Z"/></g><g id="Regular-S" transform="matrix(1 0 0 1 1405.73 696)"><path d="M47.34 -13.927 Q54.441 -13.927 59.175 -18.76 Q63.909 -23.592 63.909 -30.496 Q63.909 -37.301 59.175 -42.183 Q54.441 -47.065 47.34 -47.065 Q40.239 -47.065 35.505 -42.183 Q30.771 -37.301 30.771 -30.447 Q30.771 -23.592 35.505 -18.76 Q40.239 -13.927 47.34 -13.927 Z M47.34 -21.028 Q43.198 -21.028 40.535 -23.802 Q37.872 -26.577 37.872 -30.595 Q37.872 -34.53 40.535 -37.247 Q43.198 -39.964 47.34 -39.964 Q51.482 -39.964 54.145 -37.247 Q56.808 -34.53 56.808 -30.595 Q56.808 -26.577 54.145 -23.802 Q51.482 -21.028 47.34 -21.028 Z M16.569 -2.092 Q13.709 -2.092 11.588 -4.212 Q9.468 -6.333 9.468 -9.193 V-51.799 Q9.468 -54.659 11.588 -56.78 Q13.709 -58.9 16.569 -58.9 H28.404 L35.505 -68.368 H59.175 L66.276 -58.9 H78.111 Q81.04 -58.9 83.126 -56.78 Q85.212 -54.659 85.212 -51.799 V-9.193 Q85.212 -6.333 83.126 -4.212 Q81.04 -2.092 78.111 -2.092 H16.569 Z M16.569 -9.193 H78.111 Q78.111 -9.193 78.111 -9.193 Q78.111 -9.193 78.111 -9.193 V-51.799 Q78.111 -51.799 78.111 -51.799 Q78.111 -51.799 78.111 -51.799 H62.726 L55.615 -61.267 H39.056 L31.955 -51.799 H16.569 Q16.569 -51.799 16.569 -51.799 Q16.569 -51.799 16.569 -51.799 V-9.193 Q16.569 -9.193 16.569 -9.193 Q16.569 -9.193 16.569 -9.193 Z"/></g><g id="Light-S" transform="matrix(1 0 0 1 1109.75 696)"><path d="M47.34 -15.444 Q53.834 -15.444 58.113 -19.822 Q62.392 -24.199 62.392 -30.496 Q62.392 -36.694 58.113 -41.121 Q53.834 -45.548 47.34 -45.548 Q40.846 -45.548 36.567 -41.121 Q32.288 -36.694 32.288 -30.447 Q32.288 -24.199 36.567 -19.822 Q40.846 -15.444 47.34 -15.444 Z M47.34 -20.573 Q42.97 -20.573 40.193 -23.461 Q37.417 -26.349 37.417 -30.595 Q37.417 -34.757 40.193 -37.588 Q42.97 -40.419 47.34 -40.419 Q51.71 -40.419 54.487 -37.588 Q57.263 -34.757 57.263 -30.595 Q57.263 -26.349 54.487 -23.461 Q51.71 -20.573 47.34 -20.573 Z M17.783 -4.065 Q15.188 -4.065 13.314 -5.938 Q11.441 -7.812 11.441 -10.407 V-50.585 Q11.441 -53.18 13.314 -55.054 Q15.188 -56.927 17.783 -56.927 H29.239 L36.34 -66.395 H58.34 L65.441 -56.927 H76.897 Q79.561 -56.927 81.4 -55.054 Q83.239 -53.18 83.239 -50.585 V-10.407 Q83.239 -7.812 81.4 -5.938 Q79.561 -4.065 76.897 -4.065 H17.783 Z M17.783 -9.193 H76.897 Q77.428 -9.193 77.77 -9.534 Q78.111 -9.876 78.111 -10.407 V-50.585 Q78.111 -51.116 77.77 -51.458 Q77.428 -51.799 76.897 -51.799 H62.801 L55.653 -61.267 H39.018 L31.879 -51.799 H17.783 Q17.252 -51.799 16.91 -51.458 Q16.569 -51.116 16.569 -50.585 V-10.407 Q16.569 -9.876 16.91 -9.534 Q17.252 -9.193 17.783 -9.193 Z"/></g><g id="Thin-S" transform="matrix(1 0 0 1 814.015 696)"><path d="M47.34 -16.962 Q53.227 -16.962 57.051 -20.884 Q60.874 -24.806 60.874 -30.496 Q60.874 -36.087 57.051 -40.059 Q53.227 -44.03 47.34 -44.03 Q41.453 -44.03 37.629 -40.059 Q33.806 -36.087 33.806 -30.447 Q33.806 -24.806 37.629 -20.884 Q41.453 -16.962 47.34 -16.962 Z M47.34 -20.118 Q42.743 -20.118 39.852 -23.12 Q36.962 -26.121 36.962 -30.595 Q36.962 -34.985 39.852 -37.93 Q42.743 -40.874 47.34 -40.874 Q51.937 -40.874 54.828 -37.93 Q57.718 -34.985 57.718 -30.595 Q57.718 -26.121 54.828 -23.12 Q51.937 -20.118 47.34 -20.118 Z M18.997 -6.037 Q16.668 -6.037 15.04 -7.664 Q13.413 -9.292 13.413 -11.621 V-49.371 Q13.413 -51.7 15.04 -53.328 Q16.668 -54.955 18.997 -54.955 H30.073 L37.174 -64.423 H57.506 L64.607 -54.955 H75.683 Q78.081 -54.955 79.674 -53.328 Q81.267 -51.7 81.267 -49.371 V-11.621 Q81.267 -9.292 79.674 -7.664 Q78.081 -6.037 75.683 -6.037 H18.997 Z M18.997 -9.193 H75.683 Q76.745 -9.193 77.428 -9.876 Q78.111 -10.559 78.111 -11.621 V-49.371 Q78.111 -50.433 77.428 -51.116 Q76.745 -51.799 75.683 -51.799 H62.877 L55.691 -61.267 H38.98 L31.803 -51.799 H18.997 Q17.935 -51.799 17.252 -51.116 Q16.569 -50.433 16.569 -49.371 V-11.621 Q16.569 -10.559 17.252 -9.876 Q17.935 -9.193 18.997 -9.193 Z"/></g><g id="Ultralight-S" transform="matrix(1 0 0 1 517.792 696)"><path d="M47.34 -17.872 Q52.863 -17.872 56.413 -21.521 Q59.964 -25.17 59.964 -30.496 Q59.964 -35.723 56.413 -39.422 Q52.863 -43.12 47.34 -43.12 Q41.817 -43.12 38.267 -39.422 Q34.716 -35.723 34.716 -30.447 Q34.716 -25.17 38.267 -21.521 Q41.817 -17.872 47.34 -17.872 Z M47.34 -19.844 Q42.606 -19.844 39.647 -22.915 Q36.689 -25.985 36.689 -30.595 Q36.689 -35.122 39.647 -38.135 Q42.606 -41.147 47.34 -41.147 Q52.074 -41.147 55.033 -38.135 Q57.992 -35.122 57.992 -30.595 Q57.992 -25.985 55.033 -22.915 Q52.074 -19.844 47.34 -19.844 Z M19.725 -7.22 Q17.555 -7.22 16.076 -8.7 Q14.597 -10.179 14.597 -12.349 V-48.643 Q14.597 -50.813 16.076 -52.292 Q17.555 -53.771 19.725 -53.771 H30.574 L37.675 -63.239 H57.005 L64.106 -53.771 H74.955 Q77.194 -53.771 78.639 -52.292 Q80.084 -50.813 80.084 -48.643 V-12.349 Q80.084 -10.179 78.639 -8.7 Q77.194 -7.22 74.955 -7.22 H19.725 Z M19.725 -9.193 H74.955 Q76.336 -9.193 77.223 -10.081 Q78.111 -10.968 78.111 -12.349 V-48.643 Q78.111 -50.024 77.223 -50.911 Q76.336 -51.799 74.955 -51.799 H62.923 L55.713 -61.267 H38.957 L31.757 -51.799 H19.725 Q18.344 -51.799 17.457 -50.911 Q16.569 -50.024 16.569 -48.643 V-12.349 Q16.569 -10.968 17.457 -10.081 Q18.344 -9.193 19.725 -9.193 Z"/></g></g></svg>